<svg xmlns="http://www.w3.org/2000/svg" version="1.1" xmlns:xlink="http://www.w3.org/1999/xlink" xmlns:svgjs="http://svgjs.dev/svgjs" width="1000" height="885" viewBox="0 0 1000 885"><g transform="matrix(1,0,0,1,0.021314217443205052,0.3589612382676819)"><svg viewBox="0 0 279 247" data-background-color="#0a1627" preserveAspectRatio="xMidYMid meet" height="885" width="1000" xmlns="http://www.w3.org/2000/svg" xmlns:xlink="http://www.w3.org/1999/xlink"><g id="tight-bounds" transform="matrix(1,0,0,1,-0.005946666666659439,-0.09997365579206985)"><svg viewBox="0 0 279.0118933333333 247.2" height="247.2" width="279.0118933333333"><g><svg viewBox="0 0 279.0118933333333 247.2" height="247.2" width="279.0118933333333"><g><svg viewBox="0 0 279.0118933333333 247.2" height="247.2" width="279.0118933333333"><g id="textblocktransform"><svg viewBox="0 0 279.0118933333333 247.2" height="247.2" width="279.0118933333333" id="textblock"><g><svg viewBox="0 0 279.0118933333333 247.2" height="247.2" width="279.0118933333333"><path d="M278.359 53.02C277.047 27.36 273.309 20.227 273.309 20.227 261.831-6.202 247.508-0.506 234.64 3.292 211.921 3.446 189.295 9.091 166.628 12.119 119.053 12.581 71.072 4.986 23.732 23.717 19.286 29.464-4.613 24.846 0.791 56.304 2.208 69.39 7.376 83.913 7.218 95.922 7.927 98.026 8.91 93.202 9.33 96.23 10.799 104.39 13.2 100.541 15.167 105.365 12.426 118.246 14.393 128.971 16.269 140.21 12.963 143.135 8.727 141.749 6.825 151.449 6.628 158.479 5.566 157.145 4.398 156.837 3.545 156.632 1.827 157.402 2.116 159.608 3.1 167.152-1.124 171.514 1.525 178.904-0.298 186.91 2.785 193.838 2.365 202.511 2.313 204.255 2.601 205.744 3.06 206.154 5.093 208.361 2.129 212.672 2.444 217.342 23.3 249.262 45.926 227.195 67.294 241.872 72.842 231.608 68.671 245.516 70.888 243.36 72.619 240.846 73.879 251.263 75.833 245.362 76.135 243.668 75.676 239.665 76.751 240.435 77.315 240.846 77.814 240.743 77.892 238.382 78.01 234.841 76.974 237.048 76.699 235.201 79.676 225.861 78.942 248.081 81.736 247.158 81.604 244.438 80.791 240.538 82.457 241.051 84.11 237.151 84.162 233.918 85.631 242.693 85.684 244.592 85.946 245.926 86.366 246.85 90.957 237.305 95.522 250.237 100.335 245.926 103.287 241.205 106.12 248.492 109.111 246.696 110.16 245.259 111.223 242.693 112.233 247.004 124.602 247.928 137.784 244.079 149.511 247.158 180.847 241.41 214.335 249.518 247.376 241.923 255.168 238.998 263.261 234.841 270.856 231.506 270.856 231.506 277.008 222.371 277.008 181.316S278.319 145.393 278.516 112.703C278.713 80.013 279.631 78.679 278.319 53.02Z" opacity="1" fill="#fe0039" data-fill-palette-color="tertiary"></path><g transform="matrix(1,0,0,1,55.76831999999999,26.230666666666668)"><svg width="167.47525333333334" viewBox="5.25 -35 30.099998474121094 35" height="194.73866666666666" data-palette-color="#0a1627"><path d="M30.35-35L35.35-35 35.35 0 31.25 0 10.25-26.1 10.25 0 5.25 0 5.25-35 9.35-35 30.35-8.9 30.35-35Z" opacity="1" transform="matrix(1,0,0,1,0,0)" fill="#0a1627" class="wordmark-text-0" data-fill-palette-color="quaternary" id="text-0"></path></svg></g></svg></g></svg></g></svg></g><g></g></svg></g><defs></defs></svg><rect width="279.0118933333333" height="247.2" fill="none" stroke="none" visibility="hidden"></rect></g></svg></g></svg>